<?xml version="1.0" standalone="no"?>
<!DOCTYPE svg PUBLIC "-//W3C//DTD SVG 20010904//EN"
 "http://www.w3.org/TR/2001/REC-SVG-20010904/DTD/svg10.dtd">
<svg version="1.0" xmlns="http://www.w3.org/2000/svg"
 width="300.000000pt" height="300.000000pt" viewBox="0 0 300.000000 300.000000"
 preserveAspectRatio="xMidYMid meet">
<metadata>
Created by potrace 1.10, written by Peter Selinger 2001-2011
</metadata>
<g transform="translate(0.000000,300.000000) scale(0.050000,-0.050000)"
fill="#000000" stroke="none">
<path d="M2725 5945 c-153 -10 -165 3 287 -315 47 -33 137 -105 200 -160 110
-96 362 -270 390 -270 8 0 17 -274 21 -609 5 -399 14 -616 28 -631 21 -20 153
92 484 412 l105 102 4 168 c2 92 4 231 5 308 1 77 9 151 18 165 23 38 1 60
-154 161 -139 89 -357 271 -522 435 -45 44 -106 96 -137 116 -46 29 -52 41
-33 64 21 25 -6 29 -189 29 -116 0 -212 7 -212 16 0 17 -127 21 -295 9z m506
-224 c-6 -10 -3 -24 9 -31 11 -7 20 2 20 19 0 80 123 -4 157 -107 32 -94 29
-119 -8 -66 -17 24 -60 59 -95 77 -115 57 -164 127 -92 127 11 0 15 -8 9 -19z
m295 -244 c48 -25 74 -56 73 -87 0 -11 -12 -4 -27 15 -14 19 -30 32 -34 28 -4
-3 -24 10 -43 30 -40 43 -31 47 31 14z m451 -369 c34 -7 44 -20 38 -46 -8 -28
-1 -35 28 -27 43 11 50 -39 16 -128 -17 -45 -25 -50 -42 -26 -15 22 -23 23
-30 4 -6 -14 -23 -25 -39 -25 -34 0 -40 -187 -8 -271 28 -71 -12 -207 -58
-199 -22 3 -31 22 -28 62 3 32 -2 47 -10 34 -9 -14 -26 -17 -41 -8 -41 26 -37
46 13 64 37 14 44 29 37 73 -13 83 -36 145 -53 145 -8 0 -15 56 -16 125 0 69
-10 149 -21 179 -28 70 30 82 214 44z m65 -308 c19 0 37 -19 41 -45 12 -69
-11 -197 -33 -191 -11 3 -17 17 -14 30 3 13 -13 34 -35 46 -32 17 -41 41 -41
115 0 72 5 88 24 69 13 -13 39 -24 58 -24z"/>
<path d="M2238 5545 l-92 -7 -12 -314 c-6 -173 -23 -403 -37 -512 l-26 -197
-180 -166 c-100 -91 -271 -232 -381 -314 -110 -81 -274 -203 -364 -270 -90
-67 -184 -133 -210 -147 -25 -13 -128 -95 -229 -181 -101 -86 -192 -157 -203
-157 -12 0 -24 -8 -27 -18 -4 -11 -65 -54 -136 -97 -145 -88 -165 -117 -98
-143 26 -10 74 -47 107 -82 33 -35 101 -92 150 -125 50 -34 135 -103 190 -154
55 -51 159 -133 230 -181 72 -48 133 -94 136 -103 4 -9 67 -63 140 -120 74
-58 190 -159 258 -225 68 -65 158 -142 200 -171 470 -320 437 -256 416 -808
-25 -661 -29 -608 38 -622 87 -17 408 -13 420 6 5 9 21 294 34 633 l24 616
-99 92 c-191 176 -238 214 -387 312 -116 77 -607 470 -660 530 -5 6 -47 38
-92 71 -72 51 -181 143 -394 329 l-57 50 163 120 c89 66 227 170 306 231 79
61 207 155 284 209 77 53 194 143 260 200 66 56 179 148 250 204 72 56 158
132 192 169 35 37 103 97 153 135 l90 68 12 172 c7 94 5 244 -5 332 -10 88
-19 262 -20 386 -2 294 19 278 -344 249z m155 -529 c-6 -24 -3 -54 7 -66 44
-53 45 -170 2 -185 -38 -14 -39 -20 -13 -70 16 -30 25 -56 20 -57 -5 -2 -17
-4 -27 -5 -10 -2 -25 -10 -34 -18 -27 -27 -48 -16 -48 25 0 22 9 40 20 40 29
0 25 33 -8 65 -18 18 -22 39 -11 56 10 17 8 34 -7 43 -18 12 -18 15 0 16 16 0
18 17 6 58 -14 52 -12 58 24 51 34 -6 36 -3 14 23 -21 25 -20 34 3 49 47 30
64 22 52 -25z m27 -541 c24 8 23 2 -4 -26 -26 -27 -41 -30 -61 -13 -17 14 -37
15 -56 3 -22 -14 -22 -18 -3 -19 38 0 -11 -46 -100 -94 -102 -55 -196 -138
-196 -175 0 -17 -10 -31 -21 -31 -12 0 -16 -9 -9 -20 7 -11 2 -20 -10 -20 -12
0 -66 -45 -120 -100 -54 -55 -115 -103 -136 -106 -21 -3 -77 -39 -124 -80 -48
-41 -97 -74 -109 -74 -11 0 5 23 37 50 32 28 66 50 75 50 9 0 17 12 17 27 0
36 72 100 96 85 26 -16 173 133 203 207 14 33 35 61 47 61 11 0 80 62 152 138
128 134 196 170 262 141 17 -8 44 -9 60 -4z m-1160 -863 c0 -15 -22 -42 -49
-60 -73 -48 -89 -39 -26 15 30 26 48 53 41 60 -7 7 -2 13 11 13 13 0 23 -12
23 -28z m-477 -427 c24 -31 24 -32 -6 -9 -30 23 -32 21 -23 -16 7 -27 -2 -51
-24 -68 -26 -18 -29 -30 -13 -40 13 -8 18 -25 10 -38 -7 -13 -6 -18 2 -10 9 8
42 -12 75 -45 32 -32 66 -59 74 -59 9 0 15 -13 15 -28 0 -16 -13 -24 -31 -19
-18 5 -10 -4 18 -20 27 -16 56 -26 63 -21 19 11 119 -112 107 -132 -10 -16 47
-49 75 -43 8 2 15 -10 15 -25 0 -15 14 -33 30 -39 17 -7 30 -25 30 -41 0 -17
16 -40 35 -52 20 -13 23 -19 6 -15 -15 4 -38 24 -50 45 -27 49 -95 108 -123
109 -28 1 -128 114 -114 128 6 6 -13 17 -42 24 -28 7 -52 23 -52 35 0 11 -5
16 -10 10 -6 -5 -43 20 -82 57 -39 37 -85 67 -102 67 -22 0 -27 13 -19 43 6
24 2 60 -9 80 -15 28 -12 37 11 37 18 0 25 12 18 30 -30 80 62 124 116 55z
m1304 -1309 c14 -13 22 -45 17 -70 -8 -44 42 -70 59 -31 4 8 39 -17 79 -56
l72 -71 -59 8 c-32 5 -63 21 -69 37 -6 15 -22 27 -36 27 -36 0 -140 127 -112
136 12 4 17 16 11 26 -16 26 8 22 38 -6z m230 -286 c65 0 73 -6 86 -70 18 -90
13 -93 -69 -43 -37 24 -74 37 -80 30 -23 -23 -69 33 -69 84 0 42 5 46 31 24
16 -14 62 -25 101 -25z m-17 -200 c0 -52 -32 -85 -45 -46 -13 39 8 117 27 105
10 -6 18 -33 18 -59z m116 -185 c4 -35 -7 -73 -25 -91 -38 -39 -40 -74 -3 -74
51 0 51 -115 0 -125 -31 -6 -48 2 -55 28 -5 20 -24 37 -41 37 -37 0 -44 53 -9
64 31 11 50 236 19 236 -12 0 -22 -23 -22 -51 0 -29 -9 -46 -20 -39 -30 19
-24 46 21 91 55 55 126 15 135 -76z m-136 -374 c0 -16 18 -39 40 -51 22 -12
40 -15 40 -7 0 8 13 -3 28 -24 35 -47 3 -76 -51 -47 -29 15 -34 12 -24 -12 7
-20 -1 -30 -26 -30 -52 1 -97 31 -70 48 12 7 16 27 9 45 -6 17 1 39 16 49 22
13 22 17 2 18 -15 0 -21 9 -14 20 19 30 50 24 50 -9z"/>
<path d="M4400 4526 c0 -13 19 -35 43 -48 24 -13 119 -94 212 -182 93 -87 235
-211 315 -275 l147 -117 -121 -97 c-67 -53 -205 -161 -308 -239 -103 -78 -240
-189 -306 -246 -66 -58 -173 -146 -239 -196 -124 -95 -134 -125 -52 -163 27
-12 49 -31 49 -41 0 -23 251 -228 380 -311 104 -67 207 -147 338 -263 50 -45
139 -113 196 -151 l104 -69 -99 -79 c-54 -43 -99 -85 -99 -94 0 -8 -11 -15
-25 -15 -14 -1 -92 -60 -175 -132 -82 -71 -188 -155 -235 -184 -133 -84 -104
-95 245 -87 l317 7 101 78 c56 43 188 156 292 250 105 95 210 180 235 189 67
27 28 88 -139 219 -486 380 -919 740 -912 759 7 18 195 171 296 241 84 58 224
171 400 321 125 108 281 224 364 272 39 22 39 23 -1 51 -22 15 -134 118 -247
227 -114 109 -257 242 -318 294 l-112 95 -323 6 c-247 4 -323 -1 -323 -20z
m688 -277 c17 -17 38 -31 46 -31 52 -2 182 -114 160 -136 -13 -14 -15 -23 -4
-20 27 6 123 -35 138 -59 19 -31 -49 -42 -138 -24 -44 9 -62 18 -40 21 28 3
23 9 -20 18 -40 9 -59 25 -57 48 1 19 -6 34 -16 34 -28 0 -97 70 -128 128 -32
61 6 75 59 21z m252 -327 c0 -10 18 -14 40 -8 22 6 40 1 40 -11 0 -12 -25 -28
-55 -36 -30 -7 -67 -30 -81 -51 -50 -70 -82 27 -34 104 15 25 90 27 90 2z
m-325 -382 c-28 -22 -61 -40 -73 -40 -12 0 -22 -9 -22 -20 0 -11 -15 -20 -33
-20 -28 0 -26 8 12 49 40 43 70 56 149 68 9 2 -5 -15 -33 -37z m-327 -217
c-19 -23 -41 -37 -48 -33 -7 5 -29 -28 -49 -72 -24 -55 -44 -77 -64 -70 -16 7
-24 3 -17 -8 7 -11 -2 -26 -20 -33 -24 -9 -27 -17 -9 -27 13 -9 20 -27 16 -40
-7 -19 -18 -16 -42 8 -19 18 -38 33 -44 33 -26 -2 3 34 78 97 45 37 81 74 81
83 0 17 135 116 146 108 4 -3 -9 -24 -28 -46z m-120 -413 c36 -55 22 -64 -35
-21 -20 16 -31 38 -24 50 18 29 22 28 59 -29z m801 -732 c-14 -23 -83 -23 -97
-1 -17 28 5 38 58 28 27 -5 45 -18 39 -27z m62 -57 c-6 -10 -3 -24 8 -30 19
-12 -44 -91 -73 -91 -7 0 -57 -45 -110 -100 -53 -55 -101 -100 -106 -100 -6 0
-29 -19 -52 -42 -67 -67 -64 -32 7 78 42 65 84 105 118 114 36 8 50 23 45 46
-5 19 10 57 31 84 22 28 40 38 41 24 0 -20 10 -19 44 5 51 36 63 39 47 12z"/>
<path d="M3639 2157 c0 -4 -2 -292 -5 -640 l-4 -634 -50 -54 c-27 -29 -171
-140 -320 -246 -148 -106 -347 -255 -441 -333 -94 -77 -193 -155 -220 -173
-71 -47 -50 -52 151 -36 99 9 245 14 325 12 80 -2 145 4 145 13 0 26 108 113
141 113 17 1 58 29 90 63 33 34 218 192 412 352 193 159 361 309 372 333 24
54 29 358 9 537 -14 120 -12 134 21 143 67 18 -63 147 -299 297 -47 30 -124
89 -171 131 -101 90 -155 133 -156 122z m211 -436 c-6 -11 33 -40 88 -65 92
-43 141 -111 104 -147 -7 -7 -13 -30 -14 -51 -2 -21 -6 -45 -9 -53 -14 -35 -8
-365 7 -365 8 0 4 -13 -10 -28 -26 -28 -63 -12 -68 29 -2 10 -4 29 -5 40 -2
12 -11 16 -21 10 -21 -13 -19 -49 5 -86 17 -27 1 -65 -27 -65 -10 0 -17 16
-17 35 0 19 -6 62 -14 95 -13 54 -18 155 -11 256 1 22 11 31 25 22 14 -9 18
-5 9 8 -7 12 -28 17 -46 10 -24 -10 -28 -6 -15 15 9 16 18 46 20 68 2 21 13
42 26 47 13 4 18 16 11 27 -7 12 -22 11 -38 -3 -19 -16 -30 -16 -40 0 -18 30
6 125 29 111 9 -6 13 7 7 29 -6 22 -21 40 -33 40 -13 0 -9 9 7 20 38 25 45 25
30 1z"/>
</g>
</svg>
